# xmcd
#
# Track frame offsets: 
#        150
#        23492
#        54250
#        75407
#        113357
#        136440
#        165132
#        193342
#        216347
#        237835
#        265890
#        307682
#        336880
#
# Disc length: 4748 seconds
#
# Revision: 0
# Processed by: cddbd v1.5.1PL2 Copyright (c) Steve Scherf et al.
# Submitted via: ExactAudioCopy v0.95b4
#
DISCID=9c128a0d
DTITLE=Roy Ganes and Mitsuyoshi Azuma - Guitar Clashers from Gainsville,
DTITLE=Tokyo
DYEAR=1999
DGENRE=Blues
TTITLE0=1. Okie Dokie Stomp [Instrumental]
TTITLE1=2. You Don't Understand
TTITLE2=3. Drinkin' Fool
TTITLE3=4. Take the "A" Train [Instrumental]
TTITLE4=5. I'm Your Thing Shaker
TTITLE5=6. Gainesville [Instrumental]
TTITLE6=7. Tokyo Woman
TTITLE7=8. I Want a Little Girl
TTITLE8=9. Sno-Cone (Tribute to Albert Collins) [Instrumental]
TTITLE9=10. Cream and Sugar
TTITLE10=11. Moonlight in Vermont (Guitar Duet)
TTITLE11=12. Take the "A" Train [Uptown Version][*][Instrumental]
TTITLE12=13. Tokyo Woman [Radio Version][*]
EXTD=
EXTT0=
EXTT1=
EXTT2=
EXTT3=
EXTT4=
EXTT5=
EXTT6=
EXTT7=
EXTT8=
EXTT9=
EXTT10=
EXTT11=
EXTT12=
PLAYORDER=
